<?xml version="1.0" encoding="UTF-8" standalone="no"?>
<!-- Created with Inkscape (http://www.inkscape.org/) -->

<svg
   width="210mm"
   height="297mm"
   viewBox="0 0 210 297"
   version="1.1"
   id="svg5"
   inkscape:version="1.1.2 (0a00cf5339, 2022-02-04, custom)"
   sodipodi:docname="background.svg"
   xmlns:inkscape="http://www.inkscape.org/namespaces/inkscape"
   xmlns:sodipodi="http://sodipodi.sourceforge.net/DTD/sodipodi-0.dtd"
   xmlns="http://www.w3.org/2000/svg"
   xmlns:svg="http://www.w3.org/2000/svg">
  <sodipodi:namedview
     id="namedview7"
     pagecolor="#505050"
     bordercolor="#eeeeee"
     borderopacity="1"
     inkscape:pageshadow="0"
     inkscape:pageopacity="0"
     inkscape:pagecheckerboard="0"
     inkscape:document-units="mm"
     showgrid="false"
     inkscape:snap-global="false"
     inkscape:snap-bbox="false"
     inkscape:zoom="1.8101934"
     inkscape:cx="484.75485"
     inkscape:cy="491.10776"
     inkscape:window-width="3836"
     inkscape:window-height="2132"
     inkscape:window-x="0"
     inkscape:window-y="0"
     inkscape:window-maximized="1"
     inkscape:current-layer="layer1" />
  <defs
     id="defs2" />
  <g
     inkscape:label="Layer 1"
     inkscape:groupmode="layer"
     id="layer1">
    <rect
       style="opacity:0;fill:#ffffff;fill-opacity:1;stroke-width:0.0560595"
       id="rect3054"
       width="26.458334"
       height="26.458334"
       x="68.536499"
       y="126.20116"
       ry="0.027446194"
       inkscape:export-filename="/home/initialxy/git/initialxy-dashboard/frontend/public/background.png"
       inkscape:export-xdpi="96"
       inkscape:export-ydpi="96" />
    <path
       id="path3154"
       style="opacity:0.1;fill:#ffffff;stroke-width:0.0542895"
       d="m 68.949976,122.20322 c -0.01405,-0.004 -0.0282,0.004 -0.03196,0.0185 l -0.607154,2.26593 0.467722,0.81011 0.810117,-0.46772 0.607154,-2.26593 c 0.0038,-0.014 -0.0046,-0.0282 -0.0187,-0.032 z m -4.050592,2.33862 c -0.01404,-0.004 -0.02819,0.005 -0.03196,0.0185 l -0.32882,1.22717 c -0.0038,0.014 0.0043,0.0285 0.01838,0.0322 l 2.265918,0.60716 0.810118,-0.46773 -0.467722,-0.81012 z m 5.350702,1.43371 -0.810117,0.46772 0.467721,0.81012 2.26567,0.60709 c 0.01404,0.004 0.02851,-0.004 0.03227,-0.0186 l 0.328821,-1.22718 c 0.0037,-0.014 -0.0047,-0.0282 -0.0187,-0.032 z m -1.955674,1.12911 -0.810118,0.46772 -0.607083,2.26567 c -0.0037,0.014 0.0044,0.0284 0.01838,0.0322 l 1.227175,0.32882 c 0.01404,0.004 0.02851,-0.005 0.03227,-0.0187 l 0.607084,-2.26567 z" />
    <path
       id="path3156"
       style="opacity:0.1;fill:#ffffff;stroke-width:0.0542895"
       d="m 95.408284,122.20322 c -0.01405,-0.004 -0.0282,0.004 -0.03195,0.0185 l -0.60715,2.26593 0.467715,0.81011 0.81012,-0.46771 0.607155,-2.26594 c 0.004,-0.014 -0.0045,-0.0282 -0.0187,-0.032 z m -4.050595,2.33862 c -0.01405,-0.004 -0.0282,0.005 -0.03195,0.0185 l -0.32882,1.22717 c -0.004,0.014 0.0045,0.0285 0.0184,0.0322 l 2.265925,0.60715 0.810115,-0.46772 -0.46772,-0.81012 z m 5.3507,1.43371 -0.81012,0.46772 0.467725,0.81012 2.26567,0.60709 c 0.01405,0.004 0.0285,-0.004 0.03225,-0.0186 l 0.32882,-1.22718 c 0.004,-0.014 -0.0045,-0.0282 -0.0187,-0.032 z m -1.95567,1.12911 -0.81012,0.46773 -0.607085,2.26566 c -0.004,0.014 0.0045,0.0284 0.0184,0.0322 l 1.227175,0.32882 c 0.01405,0.004 0.0285,-0.005 0.03225,-0.0187 l 0.607085,-2.26566 z" />
    <path
       id="path3158"
       style="opacity:0.1;fill:#ffffff;stroke-width:0.0542895"
       d="m 95.408284,148.66151 c -0.01405,-0.004 -0.0282,0.005 -0.03195,0.0185 l -0.60715,2.26592 0.46772,0.81011 0.810115,-0.46771 0.607155,-2.26593 c 0.004,-0.014 -0.0045,-0.0282 -0.0187,-0.032 z m -4.05059,2.33861 c -0.01405,-0.004 -0.0282,0.004 -0.03195,0.0185 l -0.32882,1.22717 c -0.004,0.014 0.0045,0.0284 0.0184,0.0322 l 2.26592,0.60715 0.810115,-0.46772 -0.46772,-0.81012 z m 5.3507,1.43371 -0.810115,0.46772 0.46772,0.81012 2.26567,0.60709 c 0.01405,0.004 0.0285,-0.005 0.03225,-0.0187 l 0.32882,-1.22718 c 0.004,-0.0141 -0.0045,-0.0283 -0.0187,-0.0321 z m -1.95567,1.12911 -0.81012,0.46773 -0.607085,2.26566 c -0.004,0.014 0.0045,0.0284 0.0184,0.0322 l 1.227175,0.32882 c 0.01405,0.004 0.0285,-0.005 0.03225,-0.0187 l 0.60708,-2.26566 z" />
    <path
       id="path3242"
       style="opacity:0.1;fill:#ffffff;stroke-width:0.0542895"
       d="m 68.949981,148.66151 c -0.01406,-0.004 -0.0282,0.005 -0.03197,0.0185 l -0.607151,2.26592 0.467718,0.81011 0.810119,-0.46771 0.607152,-2.26593 c 0.0037,-0.014 -0.0046,-0.0282 -0.01869,-0.032 z m -4.050593,2.33861 c -0.01405,-0.004 -0.0282,0.004 -0.03196,0.0185 l -0.328821,1.22717 c -0.0037,0.014 0.0044,0.0284 0.01839,0.0322 l 2.265921,0.60715 0.810116,-0.46772 -0.467718,-0.81012 z m 5.350702,1.43371 -0.810118,0.46772 0.467723,0.81012 2.265671,0.60709 c 0.01405,0.004 0.0285,-0.005 0.03227,-0.0187 l 0.328821,-1.22718 c 0.0037,-0.0141 -0.0046,-0.0283 -0.0187,-0.0321 z m -1.955672,1.12911 -0.810119,0.46773 -0.607084,2.26566 c -0.0038,0.014 0.0043,0.0284 0.01839,0.0322 l 1.227175,0.32882 c 0.01405,0.004 0.0285,-0.005 0.03227,-0.0187 l 0.607083,-2.26566 z" />
    <path
       id="rect2708"
       style="opacity:0.15;fill:#ffffff;stroke-width:0.0545;stroke-miterlimit:4;stroke-dasharray:none"
       d="m 82.17914,135.43236 c -0.01405,-0.004 -0.0282,0.005 -0.03196,0.0185 l -0.607152,2.26592 0.467722,0.81012 0.810117,-0.46772 0.607152,-2.26592 c 0.0037,-0.014 -0.0047,-0.0282 -0.0187,-0.032 z m -4.05059,2.33861 c -0.01405,-0.004 -0.0282,0.005 -0.03196,0.0185 l -0.32882,1.22718 c -0.0037,0.014 0.0044,0.0284 0.01838,0.0322 l 2.265918,0.60715 0.810118,-0.46772 -0.467721,-0.81012 z m 5.350702,1.43372 -0.810117,0.46772 0.467722,0.81012 2.265669,0.60708 c 0.01405,0.004 0.02851,-0.005 0.03227,-0.0186 l 0.32882,-1.22717 c 0.0037,-0.0141 -0.0046,-0.0283 -0.0187,-0.0321 z m -1.955674,1.12911 -0.810118,0.46772 -0.607084,2.26567 c -0.0037,0.014 0.0044,0.0284 0.01839,0.0322 l 1.227174,0.32882 c 0.01405,0.004 0.02851,-0.005 0.03227,-0.0187 l 0.607083,-2.26567 z" />
  </g>
</svg>
